# xmcd
#
# Track frame offsets: 
#        150
#        5857
#        10547
#        18230
#        22155
#        25985
#        28842
#        32742
#        35712
#        38837
#        42410
#        45150
#        49207
#        52532
#        56172
#        61307
#        64687
#        67860
#        71845
#        77790
#        81227
#        87952
#        94340
#        100187
#        106962
#        111202
#        115870
#        120187
#        125217
#        134530
#        140035
#        147072
#        152372
#        161992
#        172682
#        183130
#        188460
#        191130
#        194125
#        197975
#        201680
#        205480
#        211337
#        215957
#        221757
#        233190
#        242707
#
# Disc length: 3381 seconds
#
# Revision: 0
# Processed by: cddbd v1.5.2PL0 Copyright (c) Steve Scherf et al.
# Submitted via: ExactAudioCopyFreeDBPlugin 1.0
#
DISCID=b90d332f
DTITLE=Wolf Marshall - Blues Guitar Classics
DYEAR=1998
DGENRE=Blues
TTITLE0=Introduction to the Recording
TTITLE1=Tuning
TTITLE2=Eb tuning
TTITLE3=Eb tuning
TTITLE4=Building Blocks of Blues Guitar Demo
TTITLE5=Building Blocks of Blues Guitar Demo
TTITLE6=Building Blocks of Blues Guitar Demo
TTITLE7=Building Blocks of Blues Guitar Demo
TTITLE8=Building Blocks of Blues Guitar Demo
TTITLE9=Building Blocks of Blues Guitar Demo
TTITLE10=Building Blocks of Blues Guitar Demo
TTITLE11=Building Blocks of Blues Guitar Demo
TTITLE12=Building Blocks of Blues Guitar Demo
TTITLE13=Building Blocks of Blues Guitar Demo
TTITLE14=Building Blocks of Blues Guitar Demo
TTITLE15=Building Blocks of Blues Guitar Demo
TTITLE16=Buddy Guy, T-Bone Walker - T-Bone Shuffle
TTITLE17=Buddy Guy, T-Bone Walker - T-Bone Shuffle
TTITLE18=Buddy Guy, T-Bone Walker - T-Bone Shuffle
TTITLE19=John Lee Hooker - Boogie Chillen No. 2
TTITLE20=John Lee Hooker - Boogie Chillen No. 2
TTITLE21=Muddy Waters - I'm Your Hoochie Coochie Man
TTITLE22=Muddy Waters - I'm Your Hoochie Coochie Man
TTITLE23=Muddy Waters - I'm Your Hoochie Coochie Man
TTITLE24=Muddy Waters - I'm Your Hoochie Coochie Man
TTITLE25=Guitar Slim, Stevie Ray Vaughan - The Things That I Used To D
TTITLE25=o
TTITLE26=Guitar Slim, Stevie Ray Vaughan - The Things That I Used To D
TTITLE26=o
TTITLE27=Guitar Slim, Stevie Ray Vaughan - The Things That I Used To D
TTITLE27=o
TTITLE28=B.B. King, Albert King, Otis Rush - Every Day I Have The Blue
TTITLE28=s
TTITLE29=B.B. King, Albert King, Otis Rush - Every Day I Have The Blue
TTITLE29=s
TTITLE30=B.B. King, Albert King, Otis Rush - Every Day I Have The Blue
TTITLE30=s
TTITLE31=Fenton Robinson, Stevie Ray Vaughan - Texas Flood
TTITLE32=Fenton Robinson, Stevie Ray Vaughan - Texas Flood
TTITLE33=Eric Clapton, Freddie King - Hideaway
TTITLE34=Eric Clapton, Freddie King - Hideaway
TTITLE35=Mike Bloomfield, Jimi Hendrix, Albert King, Howlin Wolf - Kil
TTITLE35=ling Floor
TTITLE36=Mike Bloomfield, Jimi Hendrix, Albert King, Howlin Wolf - Kil
TTITLE36=ling Floor
TTITLE37=Mike Bloomfield, Jimi Hendrix, Albert King, Howlin Wolf - Kil
TTITLE37=ling Floor
TTITLE38=Mike Bloomfield, Jimi Hendrix, Albert King, Howlin Wolf - Kil
TTITLE38=ling Floor
TTITLE39=Mike Bloomfield, Jimi Hendrix, Albert King, Howlin Wolf - Kil
TTITLE39=ling Floor
TTITLE40=Mike Bloomfield, Jimi Hendrix, Albert King, Howlin Wolf - Kil
TTITLE40=ling Floor
TTITLE41=Mike Bloomfield, Jimi Hendrix, Albert King, Howlin Wolf - Kil
TTITLE41=ling Floor
TTITLE42=Albert King, Gary Moore - As The Years Go Passing By
TTITLE43=Albert King, Gary Moore - As The Years Go Passing By
TTITLE44=Robben Ford, B.B. King - Help The Poor
TTITLE45=Robben Ford, B.B. King - Help The Poor
TTITLE46=Albert Collins, B.B. King - Frosty
EXTD=
EXTT0=
EXTT1=
EXTT2=
EXTT3=
EXTT4=
EXTT5=
EXTT6=
EXTT7=
EXTT8=
EXTT9=
EXTT10=
EXTT11=
EXTT12=
EXTT13=
EXTT14=
EXTT15=
EXTT16=
EXTT17=
EXTT18=
EXTT19=
EXTT20=
EXTT21=
EXTT22=
EXTT23=
EXTT24=
EXTT25=
EXTT26=
EXTT27=
EXTT28=
EXTT29=
EXTT30=
EXTT31=
EXTT32=
EXTT33=
EXTT34=
EXTT35=
EXTT36=
EXTT37=
EXTT38=
EXTT39=
EXTT40=
EXTT41=
EXTT42=
EXTT43=
EXTT44=
EXTT45=
EXTT46=
PLAYORDER=
